PathFileType	4	(X/Y/Z)	Patient4_TMGait_0pt5_02_left_40.trc.trc
DataRate	CameraRate	NumFrames	NumMarkers	Units	OrigDataRate	OrigDataStartFrame	OrigNumFrames
75.675675675676	75.675675675676	6	33	mm	75.675675675676	106	       141
Frame#	Time	Sacral			L.Shoulder			Chest			R.Shoulder			Neck			R.ASIS			L.ASIS			R.Thigh.Superior			R.Thigh.Lateral			R.Thigh.Inferior			R.Patella			L.Thigh.Superior			L.Thigh.Lateral			L.Thigh.Inferior			L.Patella			L.Shank.Superior			L.Shank.Lateral			L.Shank.Inferior			R.Shank.Superior			R.Shank.Lateral			R.Shank.Inferior			R.Heel			R.Midfoot.Superior			R.Midfoot.Lateral			R.Toe			L.Heel			L.Midfoot.Lateral			L.Midfoot.Superior			L.Toe			L.Elbow			L.Wrist			R.Elbow			R.Wrist			
		X1	Y1	Z1	X2	Y2	Z2	X3	Y3	Z3	X4	Y4	Z4	X5	Y5	Z5	X6	Y6	Z6	X7	Y7	Z7	X8	Y8	Z8	X9	Y9	Z9	X10	Y10	Z10	X11	Y11	Z11	X12	Y12	Z12	X13	Y13	Z13	X14	Y14	Z14	X15	Y15	Z15	X16	Y16	Z16	X17	Y17	Z17	X18	Y18	Z18	X19	Y19	Z19	X20	Y20	Z20	X21	Y21	Z21	X22	Y22	Z22	X23	Y23	Z23	X24	Y24	Z24	X25	Y25	Z25	X26	Y26	Z26	X27	Y27	Z27	X28	Y28	Z28	X29	Y29	Z29	X30	Y30	Z30	X31	Y31	Z31	X32	Y32	Z32	X33	Y33	Z33	

106	52.947500000000	694.830162999798	1015.784568830045	516.349693458020	884.393859860794	1432.226454136711	324.160365153722	992.582363764102	1356.942526682343	479.094280181504	925.493965316792	1436.818920775761	658.054556886397	898.895565427029	1494.480576676301	474.220614937201	924.999014302352	940.377096503406	620.214773105588	896.334316445628	963.887388671661	347.502511649533	958.209671268178	738.106810036100	583.797343953095	876.136507277507	633.439757578893	645.896617368320	943.731677844609	579.573974755734	558.615963551536	940.838816760225	491.007515978133	562.016281621783	983.101129128502	788.577432166937	383.633889816867	945.679120141244	660.699709302893	306.933890888665	1045.953693663416	602.010670701842	374.914508999787	1068.067704571226	520.415662701837	369.840900971928	1024.198616783388	446.217576215911	356.945983793885	912.109340122089	357.558158625861	300.281433875302	945.920823539481	231.762910406880	354.470371202019	911.870363537985	403.307492875227	570.525970975868	842.685852889277	300.288758442644	634.685374277281	878.418228443018	205.965242754911	567.522636514162	739.764730041894	42.771229995252	541.511021128634	911.910944637399	96.971409077164	571.615384386351	825.209565538495	36.641344711703	613.866344534212	1033.068195368972	43.742834085676	596.547296342646	793.972970862611	97.641615097296	383.589849675039	864.382786209226	86.269618656023	301.945194416821	957.694162548102	130.112534675946	328.137779756857	1071.071568280294	59.913319671704	293.473671359197	823.027981579974	1075.882327574430	222.247741735978	871.568714819631	819.577851526253	220.770167558825	962.059682671108	1097.579597719031	785.262728331057	1192.505217153756	1005.275273956519	720.186193029692	
107	52.960714285714	693.254963720775	1016.484448678211	517.401752122363	883.252954804895	1431.907237918750	323.852390493166	992.264375621402	1356.392231872541	478.077209151947	926.866972892677	1437.033180089450	657.342842013721	898.877575386697	1494.343230621661	473.684855883693	923.368435645191	940.086862389113	620.212686045384	894.099178837394	964.137437985138	347.516959985324	954.988140189598	737.518512328690	583.399080936563	872.550580001642	633.393310121952	646.159477389251	939.108380616316	579.142959016571	558.519776886002	935.612000424750	490.618331486710	562.115249188565	980.617705057749	789.439555652445	384.045451201055	943.872889563005	661.686896209319	306.494899043178	1043.377664248488	603.187078714527	375.628803354952	1067.212633639716	523.861117193063	370.346725777540	1027.602897955984	449.265513208261	356.684804117902	922.692607833669	353.383761986148	298.377876291393	964.394650613986	229.785224044221	353.087196322057	906.422168884444	402.912930220078	570.585282516496	836.922888960955	300.093868258225	634.724884435905	872.226067992706	205.712799432958	567.526794553043	733.092420902005	42.729877015421	541.507757386173	905.226983275904	96.932422752736	571.592448703001	818.535359188602	36.633488202373	613.901774686973	1026.373576068136	43.743866094311	596.561186955109	821.829767741919	85.128198709258	380.524954496752	894.012981964219	78.687193934596	299.777477304386	983.718229725553	128.929327312616	326.989282677994	1102.222494464039	66.812260381003	293.982751084001	813.811040578058	1076.651183170740	223.663141024912	849.705779253302	818.629197863365	222.444173913446	972.838303591674	1100.160487135860	784.693048154675	1207.909034446911	1027.856057310567	714.223355079056	
108	52.973928571429	691.807791282139	1017.055831665307	518.270585829914	882.227496607271	1431.557929912555	323.445366424991	991.963059724829	1355.763398655793	477.001990377827	928.121041443230	1437.106549934204	656.527513236830	898.849625454301	1494.120097495973	473.080330839670	921.818678314518	939.730897985765	620.139401071576	892.064433691225	964.184795412282	347.416530394099	951.981306928771	736.886252906057	583.037193673307	869.188874025522	633.258517718324	646.342673558163	934.805325248812	578.656624750625	558.395122876302	930.722560061677	490.154972671763	562.163253896511	977.906982270301	789.728506659833	384.345181027186	941.692875078551	662.301007477930	305.766368876455	1040.310296809821	603.804228592753	376.131597143237	1065.766524548515	526.870183613884	370.682367001128	1030.363053425313	452.139463281433	356.386778091704	933.025515339506	349.546901714914	296.414666353627	982.132436023266	228.654357650072	351.969331890158	901.242321825440	402.455393436660	570.593735917290	831.357446259599	299.873822404427	634.721231089282	866.134023077925	205.407647321662	567.495568568042	726.422510797644	42.698794614015	541.505903722014	898.545292529872	96.887251165595	571.558022898204	811.863806480927	36.627606634254	613.934381347432	1019.685917295630	43.725531071540	596.572352131847	849.217323615289	74.426398672581	377.710660363060	923.108288484779	72.592779900162	298.090212278562	1008.876609541323	128.855121302418	326.373333817105	1131.936918256563	74.671963287918	295.549170289942	804.755501556962	1077.683269512836	224.821784160403	828.838790203892	818.622104159417	224.256189816847	983.615600524601	1102.834172288220	783.648068816439	1221.478920891614	1050.617981048511	707.880419092969	
109	52.987142857143	690.498021069439	1017.497312760744	518.958434246015	881.306358218810	1431.189396379348	322.937595970774	991.667860041250	1355.088659924416	475.876419129390	929.226705910900	1437.067174769196	655.611689796982	898.804042088555	1493.829222350486	472.400498039930	920.381729502522	939.320072712108	619.976821576429	890.213286286017	964.063887306588	347.196883390773	949.201394032347	736.208504068443	582.691779073918	866.060009966651	633.033029454759	646.427606239192	930.831641047274	578.103521019021	558.220157973402	926.174085431828	489.612480825683	562.132593316879	975.049146037197	789.529576118884	384.510940913533	939.280750572555	662.611760419124	304.764239659468	1036.955336115629	603.973789797745	376.370033818834	1063.896149917064	529.465725883740	370.809659436050	1032.548089031637	454.826357237911	356.030308954396	942.897069430862	346.167903442358	294.495347460292	998.790418340022	228.377616237923	351.143435739533	896.332777703314	401.939492811061	570.534075015782	825.996510360822	299.640335557899	634.666043615490	860.146137413501	205.057856827189	567.422275560330	719.756044207947	42.681821366958	541.508385312155	891.870283137865	96.835746893653	571.513161072102	805.196251939637	36.624723185138	613.964351843419	1013.007759401892	43.685804232781	596.582422000340	875.483952002739	65.739887301306	375.330203019913	950.965358806346	68.040934392873	296.982546291026	1032.638929289247	129.815999475794	326.275084476109	1159.608138096614	83.178415421416	298.013988582782	795.937273773686	1078.965871247749	225.730357084882	809.123779954346	819.412914073208	226.181792057598	994.336115283320	1105.608922158124	782.117307953424	1233.217109143287	1073.256310027552	701.242950279491	
110	53.000357142857	689.332757343108	1017.811436229801	519.462976283515	880.470069116090	1430.814780876942	322.329648479485	991.368551109263	1354.404191450794	474.704563635470	930.164185833172	1436.946451858329	654.599163999267	898.730494276154	1493.491172244805	471.640937721431	919.087143454927	938.868484633782	619.703426046943	888.533193798842	963.814166281106	346.847517233205	946.645157075362	735.486625615335	582.330918450870	863.158999284984	632.721551029974	646.397779717430	927.176212060858	577.476901895694	557.974814662887	921.948656523221	488.990373098662	562.002169367735	972.147362296357	788.952227063448	384.516444405413	936.770443998506	662.680303740442	303.539468294469	1033.518856789643	603.807056754579	376.305699890776	1061.763751008813	531.659926969144	370.704271239431	1034.222560398801	457.290879396230	355.594184263140	952.053360389396	343.299927149256	292.738591850977	1014.039647715797	228.859602184609	350.609577225720	891.675826920714	401.370689453813	570.391966284833	820.833428876468	299.406138647929	634.554329507534	854.259441775563	204.674187419837	567.303666321538	713.094236378647	42.683024908499	541.517115943304	885.206192331665	96.778428537480	571.460354477471	798.533732467290	36.625884407066	613.991710176630	1006.341037962133	43.622402759652	596.592996453500	899.984927240923	59.095919057439	373.561725430677	976.870215480458	64.936646095288	296.512826370838	1054.497552715273	131.614871390092	326.624442606179	1184.687193574279	91.904259476949	301.088898760750	787.423916561259	1080.478482809672	226.402085556066	790.678559119280	820.854695845323	228.181755641972	1004.922233248347	1108.495144171831	780.101637471703	1243.168195208612	1095.480086652128	694.394478650679	
111	53.013571428571	688.318794800756	1018.003005007993	519.775996860695	879.692655223793	1430.448126703242	321.623946210714	991.055800038860	1353.745688777782	473.486037242762	930.923678344292	1436.773935945925	653.493881163636	898.615476436437	1493.126348499677	470.800470129041	917.960882722459	938.393038012736	619.297929001061	887.021380887358	963.473191156115	346.355246402652	944.296634228232	734.725037304127	581.917110881061	860.468050519849	632.335364349113	646.241537962468	923.810883813052	576.775024448348	557.645938222593	918.009573100926	488.292928206986	561.761532058840	969.323348566952	788.116860799859	384.333062848312	934.272562307295	662.547185780160	302.174099855778	1030.190078452668	603.399223344760	375.918217626846	1059.516158881956	533.448873168215	370.357981263252	1035.438620997126	459.473774484109	355.065030624693	960.221216132034	340.927774421077	291.262992246026	1027.578384887118	229.915010795934	350.347974230862	887.238233857406	400.755914375044	570.159705794947	815.848836065035	299.183630567789	634.385840177497	848.464519752862	204.269095549254	567.140959835246	706.438340342814	42.706118516221	541.533125842599	878.556558191240	96.716446448894	571.403284714682	791.876904528631	36.631823811181	614.016227978175	999.686778262501	43.533285443550	596.605536878923	922.114496020817	54.360694726496	372.554911441512	1000.142078980775	63.058009030687	296.694053013487	1073.990066897438	133.955153119668	327.314458203522	1206.704550713850	100.345558911042	304.407824097213	779.272699698820	1082.193194823626	226.854740266683	773.582984853059	822.802849318203	230.204800772752	1015.278544943913	1111.499164144877	777.616111059032	1251.413600266239	1117.020337347815	687.414210859467	
